<svg width="618" height="200" viewBox="0 0 618 200" fill="none" xmlns="http://www.w3.org/2000/svg">
<path fill-rule="evenodd" clip-rule="evenodd" d="M22.4922 1.10021L63.5502 0.740234L84.1666 21.6276V171.642L80.5938 177.815L86.7597 183.966L71.5608 199.129L65.6183 193.201L61.7964 199.805H23.4788L0 176.381V23.2451L22.4926 1.10021H22.4922ZM37.6927 27.1977H49.0673C53.9621 27.1977 57.9668 31.1932 57.9668 36.0763V151.502L53.195 145.985L38.5706 160.574L48.6837 172.719H37.6927C32.7979 172.719 28.7932 168.724 28.7932 163.841V36.0763C28.7932 31.193 32.7981 27.1977 37.6927 27.1977Z" fill="#222222"/>
<path fill-rule="evenodd" clip-rule="evenodd" d="M134.452 162.627V153.898V1.08887H108.15V171.834L129.048 199.805C143.134 199.805 157.221 199.805 171.308 199.805L192.205 171.834V1.08887H165.903V153.898V162.627C165.903 167.674 163.479 172.093 157.813 172.093C152.723 172.093 147.632 172.093 142.543 172.093C136.877 172.093 134.452 167.674 134.452 162.627H134.452Z" fill="#222222"/>
<path fill-rule="evenodd" clip-rule="evenodd" d="M405.521 85.7943H349.273V27.1735H405.521V1.08887H320.051V98.6472V100.841V199.805H405.521V172.315H349.273V113.694H405.521V85.7943Z" fill="#222222"/>
<path fill-rule="evenodd" clip-rule="evenodd" d="M454.646 17.7443V1.08882H427.725V199.805H455.01V105.941L483.387 199.441H512.128V0H483.751V111.022L454.646 17.7443Z" fill="#222222"/>
<path fill-rule="evenodd" clip-rule="evenodd" d="M560.959 112.592L571.129 112.851H583.176C587.334 112.851 590.783 116.021 591.219 120.059H591.266V120.923V162.56L590.777 165.319C589.641 168.412 586.655 170.633 583.176 170.633H569.46C565.981 170.633 562.995 168.412 561.859 165.319C561.576 164.319 561.37 163.631 561.37 162.56V141.854H534.004V175.502L555.517 199.805H594.431L618 176.291V115.217L591.045 87.6329L580.875 87.3747H568.828C564.671 87.3747 561.221 84.2043 560.785 80.166H560.738V79.3024V35.3733L561.227 32.6144C562.363 29.5222 565.349 27.3009 568.828 27.3009H582.544C586.024 27.3009 589.009 29.5222 590.145 32.6144C590.428 33.6152 590.634 34.3029 590.634 35.3733V55.6553H618V24.7238L596.487 1.08887H557.573L534.004 23.9344V85.008L560.959 112.592V112.592Z" fill="#222222"/>
<path fill-rule="evenodd" clip-rule="evenodd" d="M298.324 85.7943H242.076V27.1735H298.324V1.08887H212.854V98.6472V100.841V199.805H298.324V172.315H242.076V113.694H298.324V85.7943Z" fill="#222222"/>
</svg>
